<svg width="48" height="48" viewBox="0 0 48 48" fill="none" xmlns="http://www.w3.org/2000/svg">
<g clip-path="url(#clip0_657_6714)">
<g filter="url(#filter0_ddd_657_6714)">
<path d="M0 24C0 10.7452 10.7452 0 24 0V0C37.2548 0 48 10.7452 48 24V24C48 37.2548 37.2548 48 24 48V48C10.7452 48 0 37.2548 0 24V24Z" fill="#15181D"/>
<g clip-path="url(#clip1_657_6714)">
<path d="M27.3227 15.0397C26.2804 16.4263 26.0285 16.8883 25.0224 16.8883H10V34.6663H15.8941C17.2238 34.6663 18.5173 34.0263 19.344 32.9597C20.4224 31.5377 20.5658 31.111 21.6081 31.111H36.6667V13.333H30.7364C29.4067 13.333 28.1138 13.973 27.3227 15.0397ZM31.9944 26.5243H25.705C24.3391 26.5243 23.0818 27.093 22.2552 28.195C21.1767 29.6177 20.961 30.0443 19.9549 30.0443H14.6361V21.511H20.9255C22.2907 21.511 23.5487 20.871 24.3753 19.8043C25.4538 18.4177 25.7412 17.991 26.7111 17.991H31.9944V26.5243Z" fill="white"/>
</g>
</g>
</g>
<defs>
<filter id="filter0_ddd_657_6714" x="-9.6" y="-2.4" width="67.2" height="69.6" filterUnits="userSpaceOnUse" color-interpolation-filters="sRGB">
<feFlood flood-opacity="0" result="BackgroundImageFix"/>
<feColorMatrix in="SourceAlpha" type="matrix" values="0 0 0 0 0 0 0 0 0 0 0 0 0 0 0 0 0 0 127 0" result="hardAlpha"/>
<feOffset dy="1.2"/>
<feGaussianBlur stdDeviation="1.2"/>
<feComposite in2="hardAlpha" operator="out"/>
<feColorMatrix type="matrix" values="0 0 0 0 0.0588235 0 0 0 0 0.0470588 0 0 0 0 0.0470588 0 0 0 0.1 0"/>
<feBlend mode="normal" in2="BackgroundImageFix" result="effect1_dropShadow_657_6714"/>
<feColorMatrix in="SourceAlpha" type="matrix" values="0 0 0 0 0 0 0 0 0 0 0 0 0 0 0 0 0 0 127 0" result="hardAlpha"/>
<feOffset/>
<feGaussianBlur stdDeviation="1.2"/>
<feComposite in2="hardAlpha" operator="out"/>
<feColorMatrix type="matrix" values="0 0 0 0 0.0588235 0 0 0 0 0.0470588 0 0 0 0 0.0470588 0 0 0 0.1 0"/>
<feBlend mode="normal" in2="effect1_dropShadow_657_6714" result="effect2_dropShadow_657_6714"/>
<feColorMatrix in="SourceAlpha" type="matrix" values="0 0 0 0 0 0 0 0 0 0 0 0 0 0 0 0 0 0 127 0" result="hardAlpha"/>
<feMorphology radius="4.8" operator="erode" in="SourceAlpha" result="effect3_dropShadow_657_6714"/>
<feOffset dy="9.6"/>
<feGaussianBlur stdDeviation="7.2"/>
<feComposite in2="hardAlpha" operator="out"/>
<feColorMatrix type="matrix" values="0 0 0 0 0.0588235 0 0 0 0 0.0470588 0 0 0 0 0.0470588 0 0 0 0.08 0"/>
<feBlend mode="normal" in2="effect2_dropShadow_657_6714" result="effect3_dropShadow_657_6714"/>
<feBlend mode="normal" in="SourceGraphic" in2="effect3_dropShadow_657_6714" result="shape"/>
</filter>
<clipPath id="clip0_657_6714">
<rect width="48" height="48" fill="white"/>
</clipPath>
<clipPath id="clip1_657_6714">
<rect width="28.8" height="21.3333" fill="white" transform="translate(8.93164 13.333)"/>
</clipPath>
</defs>
</svg>
