<svg width="48" height="48" viewBox="0 0 48 48" fill="none" xmlns="http://www.w3.org/2000/svg">
<rect width="48" height="48" rx="24" fill="#117ACA"/>
<path d="M20.012 10C19.4658 10 19.0234 10.4425 19.0234 10.9882V17.9191H37.3266L28.9914 10.0006L20.012 10Z" fill="white"/>
<path d="M38.0016 20.0169C38.0016 19.4699 37.5624 19.0293 37.0131 19.0293H30.0859V37.3381L37.9984 28.9968L38.0016 20.0169Z" fill="white"/>
<path d="M27.9884 38.0005C28.5333 38.0005 28.9757 37.5574 28.9757 37.0104V30.082H10.6719L19.0083 37.9993L27.9884 38.0005Z" fill="white"/>
<path d="M10 27.9847C10 28.531 10.4424 28.9761 10.9899 28.9761H17.9157V10.666L10.0013 19.0048L10 27.9847Z" fill="white"/>
</svg>
