<svg width="48" height="48" viewBox="0 0 48 48" fill="none" xmlns="http://www.w3.org/2000/svg">
<rect width="48" height="48" rx="24" fill="#E7F255"/>
<rect x="0.6" y="0.6" width="46.8" height="46.8" rx="23.4" stroke="white" stroke-opacity="0.1" stroke-width="1.2"/>
<g clip-path="url(#clip0_575_9066)">
<path d="M38.391 35.878V36H23.2368V35.878C25.4359 34.6169 26.9154 33.3559 28.2749 32.0136H34.5125L38.391 35.878ZM34.6724 15.8237L30.8339 12H30.7139C30.7139 12 30.7939 19.1186 24.3164 25.6271C17.9988 31.9729 10.6016 32.0136 10.6016 32.0136V32.1356L14.5201 36C14.5201 36 21.8373 36.0814 28.2749 29.6136C34.7124 23.2271 34.6724 15.8237 34.6724 15.8237Z" fill="black"/>
</g>
<defs>
<clipPath id="clip0_575_9066">
<rect width="27.7895" height="24" fill="white" transform="translate(10.6016 12)"/>
</clipPath>
</defs>
</svg>
