<svg width="48" height="48" viewBox="0 0 48 48" fill="none" xmlns="http://www.w3.org/2000/svg">
<rect width="48" height="48" rx="24" fill="white"/>
<g clip-path="url(#clip0_578_9280)">
<mask id="mask0_578_9280" style="mask-type:luminance" maskUnits="userSpaceOnUse" x="8" y="17" width="32" height="14">
<path d="M8 17H40V31H8V17Z" fill="white"/>
</mask>
<g mask="url(#mask0_578_9280)">
<path d="M39.6495 17.3516H8.34375V30.6503H39.6495V17.3516Z" stroke="black" stroke-width="0.969697" stroke-miterlimit="10"/>
<path d="M15.0506 26.8785C14.7228 26.8797 14.398 26.8151 14.0952 26.6884C13.7924 26.5616 13.5178 26.3753 13.2874 26.1404C13.0564 25.9053 12.8741 25.6264 12.751 25.3198C12.628 25.0131 12.5666 24.6849 12.5705 24.3542C12.5705 22.7524 13.9035 21.8114 15.0978 21.8114C15.9521 21.8114 16.7512 22.1351 17.1785 22.8904L16.3795 23.3606C16.2416 23.1498 16.0535 22.9771 15.8324 22.8583C15.6113 22.7394 15.3643 22.6782 15.1137 22.6801C14.411 22.6801 13.5744 23.2368 13.5744 24.3402C13.5744 25.4189 14.3735 26.0088 15.1767 26.0088C15.446 26.006 15.7094 25.9295 15.9388 25.7873C16.1682 25.6452 16.3548 25.4429 16.4787 25.202L17.2958 25.5862C16.8355 26.4285 16.01 26.8785 15.0506 26.8785ZM20.2495 25.9659C21.1607 25.9659 21.7875 25.2756 21.7875 24.3477C21.7875 23.4198 21.1604 22.7296 20.2495 22.7296C19.3383 22.7296 18.6899 23.4114 18.6899 24.3324C18.6899 25.2659 19.318 25.9659 20.2495 25.9659ZM20.1532 26.8785C18.7103 26.8785 17.6827 25.7747 17.6827 24.3445C17.6827 22.8859 18.7009 21.8114 20.1532 21.8114C20.8197 21.8114 21.4616 22.0954 21.7694 22.531V21.9368H22.7562V26.7437H21.7694V26.1479C21.4458 26.5809 20.8187 26.8785 20.1532 26.8785ZM27.742 26.7417V22.8654H26.9824V21.9049H27.7517V20.4844H28.7686V21.9052H29.8227V22.8654H28.7686V26.7411H27.742V26.7417ZM32.7328 25.9659C33.6436 25.9659 34.2717 25.2756 34.2717 24.3477C34.2717 23.4198 33.6436 22.7296 32.7324 22.7296C31.8216 22.7296 31.1744 23.4114 31.1744 24.3324C31.1744 25.2659 31.8015 25.9659 32.7328 25.9659ZM32.6364 26.8785C31.1922 26.8785 30.1669 25.7747 30.1669 24.3445C30.1669 22.8859 31.1838 21.8114 32.6364 21.8114C33.3029 21.8114 33.9449 22.0954 34.2526 22.531V21.9368H35.2404V26.7437H34.2526V26.1479C33.929 26.5809 33.302 26.8785 32.6364 26.8785ZM23.7728 26.7359V21.929H24.713V22.7641C24.9073 22.2246 25.3184 21.8525 25.8634 21.8525C25.9817 21.8502 26.0997 21.8635 26.2148 21.8915V22.8211C25.4477 22.7315 24.7993 23.2733 24.7993 24.5105V26.7359H23.7728Z" fill="black"/>
</g>
</g>
<defs>
<clipPath id="clip0_578_9280">
<rect width="32" height="14" fill="white" transform="translate(8 17)"/>
</clipPath>
</defs>
</svg>
