<svg width="48" height="48" viewBox="0 0 48 48" fill="none" xmlns="http://www.w3.org/2000/svg">
<rect width="48" height="48" rx="24" fill="#635BFF"/>
<path fill-rule="evenodd" clip-rule="evenodd" d="M31.0424 28.0092C31.0424 32.0823 27.8744 34.4 23.1841 34.4C21.0794 34.3984 18.9975 33.9643 17.0676 33.1246V27.7349C18.9601 28.7635 21.319 29.5315 23.1841 29.5315C24.4458 29.5315 25.2824 29.2023 25.2824 28.16C25.2824 25.4446 16.6973 26.4595 16.6973 20.2058C16.6973 16.2149 19.8241 13.8286 24.4047 13.8286C26.2698 13.8286 28.135 14.1029 30.0138 14.8572V20.1783C28.2775 19.2645 26.3526 18.7669 24.391 18.7246C23.2116 18.7246 22.4161 19.0675 22.4161 19.9589C22.4161 22.496 31.0424 21.2892 31.0424 28.0229V28.0092Z" fill="white"/>
</svg>
