<svg width="48" height="48" viewBox="0 0 48 48" fill="none" xmlns="http://www.w3.org/2000/svg">
<rect width="48" height="48" rx="24" fill="#F45D48"/>
<path d="M30.6424 27.3738V14.2999H27.0841V15.1795C25.8846 14.3998 24.4853 14 23.0659 14C18.9678 14 15.6094 17.3584 15.6094 21.4965C15.6094 25.6346 18.9678 29.0131 23.0859 29.0131C24.4853 29.0131 25.8646 28.6133 27.0641 27.8736C27.0641 27.9935 27.0641 28.0935 27.0641 28.1535C27.0641 30.3325 25.3049 32.1116 23.1259 32.1116C22.3862 32.1116 21.6666 31.8917 21.0469 31.5119L19.2877 34.5905C20.4471 35.2902 21.7665 35.67 23.1259 35.67C27.244 35.67 30.6424 32.2916 30.6424 28.1535C30.6424 27.9935 30.6624 27.5338 30.6424 27.3738ZM23.0859 25.4547C20.9269 25.4547 19.1477 23.6755 19.1477 21.4965C19.1477 19.3175 20.9069 17.5384 23.0859 17.5384C25.2649 17.5384 27.0241 19.3175 27.0241 21.4965C27.0241 23.6755 25.2449 25.4547 23.0859 25.4547Z" fill="white"/>
</svg>
