<svg width="48" height="48" viewBox="0 0 48 48" fill="none" xmlns="http://www.w3.org/2000/svg">
<path d="M0 24C0 10.7452 10.7452 0 24 0V0C37.2548 0 48 10.7452 48 24V24C48 37.2548 37.2548 48 24 48V48C10.7452 48 0 37.2548 0 24V24Z" fill="white"/>
<path d="M23.9687 5.9707C14.0726 5.9707 5.96875 13.9967 5.96875 23.8928V23.9707C5.96875 33.9447 14.0726 41.9707 23.9687 41.9707C33.9428 41.9707 41.9687 33.8668 41.9687 23.9707C42.0467 14.0746 33.9428 5.9707 23.9687 5.9707ZM19.4493 7.68499C20.7739 7.29538 22.2545 7.06161 23.735 7.06161C23.8129 7.06161 23.8908 7.06161 23.9687 7.06161C24.0467 7.06161 24.1246 7.06161 24.2025 7.06161C26.5402 7.13953 28.4882 8.62005 29.3454 10.646C29.5012 11.1136 29.6571 11.5032 29.735 11.9707C29.8129 12.2045 29.8129 12.5162 29.8129 12.8278C29.8129 14.1525 29.3454 15.3214 28.6441 16.3343C27.8649 15.8668 27.0077 15.5551 26.1506 15.3214C26.8519 14.698 27.2415 13.8408 27.2415 12.9058C27.2415 12.2045 27.0077 11.5811 26.6181 11.0356C25.9947 10.2564 25.0597 9.71096 23.9687 9.71096C22.0986 9.71096 20.3064 10.1006 18.5921 10.724C18.1246 10.8798 17.6571 11.1136 17.2675 11.3473C14.696 12.672 12.5921 14.7759 11.2675 17.3473C9.86485 17.659 8.6181 18.4382 7.68304 19.5291C9.3194 13.7629 13.761 9.24343 19.4493 7.68499ZM30.9038 12.5941C32.7739 13.685 34.3324 15.2434 35.4233 17.1136C35.3454 17.1136 35.2674 17.1136 35.1895 17.1136C33.6311 17.1136 32.2285 17.5811 31.1376 18.4382C30.67 17.8928 30.2025 17.3473 29.5791 16.8798C30.4363 15.711 30.9038 14.3084 30.9038 12.8278C30.9038 12.7499 30.9038 12.672 30.9038 12.5941ZM37.0597 21.3214C36.5142 20.9317 35.8908 20.698 35.1895 20.698C34.1765 20.698 33.3194 21.0876 32.7739 21.7889C32.2285 22.3343 31.9947 23.1136 31.9947 23.9707C31.9947 25.3733 31.6051 26.698 30.9817 27.8668C30.8259 28.1785 30.5921 28.4902 30.3584 28.8019C29.9687 29.3473 29.4233 29.8149 28.9558 30.2045C28.3324 29.5811 27.5532 29.0356 26.6181 28.724C27.5532 28.2564 28.3324 27.4772 28.8778 26.4642C29.2674 25.7629 29.5012 24.8278 29.5012 23.9707C29.5012 22.4902 30.0467 21.0876 30.9817 20.0746C31.2155 19.8408 31.5272 19.5291 31.761 19.2954C32.7739 18.5941 33.9428 18.1265 35.2674 18.1265C35.5791 18.1265 35.8908 18.1265 36.1246 18.2045C36.5142 19.2175 36.8259 20.2304 37.0597 21.3214ZM37.2934 23.8928V23.9707V24.0486C37.2155 25.2175 36.2804 26.1525 35.1116 26.1525C33.9428 26.1525 32.9298 25.1395 32.9298 23.9707C32.9298 22.8019 33.9428 21.7889 35.1116 21.7889C36.2804 21.7889 37.2934 22.724 37.2934 23.8928ZM29.5791 31.0616C30.1246 30.5941 30.67 30.1265 31.1376 29.5032C32.3064 30.3603 33.709 30.8278 35.1895 30.8278C35.2674 30.8278 35.3454 30.8278 35.4233 30.8278C34.3324 32.698 32.7739 34.2564 30.9038 35.3473C30.9038 35.2694 30.9038 35.1915 30.9038 35.1136C30.9038 33.633 30.3584 32.1525 29.5791 31.0616ZM26.1506 32.698C25.6051 32.1525 24.8259 31.9188 23.9687 31.9188C22.5662 31.9188 21.2415 31.5291 20.0726 30.9058C19.761 30.7499 19.4493 30.5162 19.1376 30.2824C18.5921 29.8928 18.1246 29.3473 17.735 28.8798C18.3584 28.2564 18.9038 27.4772 19.2934 26.5421C19.761 27.4772 20.5402 28.2564 21.5532 28.8019C22.2545 29.1915 23.1895 29.4252 24.0467 29.4252C25.5272 29.4252 26.9298 29.9707 27.9428 30.9058C28.1765 31.1395 28.4882 31.4512 28.722 31.685C29.4233 32.698 29.8908 33.8668 29.8908 35.1915C29.8908 35.5032 29.8908 35.7369 29.8129 36.0486C28.7999 36.5162 27.7869 36.8278 26.696 37.0616C27.0856 36.5162 27.3194 35.8928 27.3194 35.1915C27.2415 34.1785 26.8519 33.3214 26.1506 32.698ZM26.1506 35.1136C26.1506 36.2045 25.2934 37.1395 24.2025 37.2954C24.1246 37.2954 24.0467 37.2954 23.9687 37.2954C23.8908 37.2954 23.8129 37.2954 23.735 37.2954C22.6441 37.2175 21.7869 36.2824 21.7869 35.1136C21.7869 33.9447 22.7999 32.9317 23.9687 32.9317C25.2155 33.0097 26.1506 33.9447 26.1506 35.1136ZM17.1116 35.3473C15.2415 34.2564 13.683 32.6201 12.5921 30.8278C12.67 30.8278 12.748 30.8278 12.8259 30.8278C14.3843 30.8278 15.7869 30.3603 16.8778 29.5032C17.3454 30.0486 17.8908 30.5941 18.4363 31.0616C17.5791 32.2304 17.1116 33.633 17.1116 35.1136C17.1116 35.2694 17.1116 35.3473 17.1116 35.3473ZM12.8259 27.2434C13.761 27.2434 14.6181 26.8538 15.2415 26.1525L15.3194 26.0746C15.3973 25.9967 15.3973 25.9188 15.4752 25.8408L15.5532 25.7629C15.5532 25.7629 15.5532 25.685 15.6311 25.685C15.6311 25.6071 15.709 25.6071 15.709 25.5291C15.709 25.5291 15.709 25.4512 15.7869 25.4512C15.7869 25.3733 15.7869 25.3733 15.8649 25.2954V25.2175V25.1395C15.8649 25.0616 15.8649 24.9837 15.9428 24.9837V24.9058V24.8278V24.7499V24.672C15.9428 24.5941 15.9428 24.5941 15.9428 24.5162V24.4382C15.9428 24.3603 15.9428 24.3603 15.9428 24.2824C15.9428 22.8798 16.3324 21.5551 16.9558 20.3863C17.1116 20.0746 17.3454 19.7629 17.5791 19.4512C17.9687 18.9058 18.4363 18.4382 18.9817 18.0486C19.6051 18.672 20.3843 19.2175 21.3194 19.6071C20.3843 20.0746 19.6051 20.8538 19.0597 21.8668C18.67 22.5681 18.4363 23.4252 18.4363 24.3603C18.4363 25.8408 17.8129 27.2434 16.8778 28.2564C16.6441 28.4902 16.3324 28.8019 16.0986 28.9577C15.0856 29.659 13.9168 30.1265 12.67 30.1265C12.3584 30.1265 12.0467 30.1265 11.735 30.0486C11.2675 29.0356 10.9558 28.0227 10.722 26.9317C11.5012 27.0097 12.1246 27.2434 12.8259 27.2434ZM10.6441 23.9707C10.6441 23.8928 10.6441 23.8928 10.6441 23.8149C10.722 22.646 11.6571 21.711 12.8259 21.711C13.9947 21.711 15.0077 22.724 15.0077 23.8928C15.0077 25.0616 13.9947 25.9967 12.8259 25.9967C11.6571 26.1525 10.722 25.2175 10.6441 23.9707ZM18.4363 16.9577C17.8908 17.4252 17.3454 17.8928 16.9558 18.4382C15.7869 17.5811 14.3843 17.1136 12.8259 17.1136C12.748 17.1136 12.67 17.1136 12.5921 17.1136C13.683 15.3214 15.2415 13.7629 17.1116 12.5941C17.1116 12.672 17.1116 12.7499 17.1116 12.8278C17.1116 14.3863 17.5791 15.7889 18.4363 16.9577ZM21.8649 15.3214C22.4103 15.8668 23.1895 16.1006 24.0467 16.1006C25.4493 16.1006 26.7739 16.4902 27.9428 17.1136C28.2545 17.2694 28.5661 17.5032 28.8778 17.7369C29.4233 18.1265 29.8908 18.672 30.2804 19.1395C29.6571 19.7629 29.1116 20.5421 28.7999 21.4772C28.3324 20.5421 27.5532 19.7629 26.5402 19.2175C25.8389 18.8278 24.9038 18.5941 24.0467 18.5941C22.5662 18.5941 21.1636 18.0486 20.1506 17.1136C19.9168 16.8798 19.6051 16.5681 19.3713 16.3343C18.67 15.3214 18.2025 14.1525 18.2025 12.8278C18.2025 12.5162 18.2025 12.2045 18.2804 11.9707C19.2934 11.5032 20.3064 11.1915 21.3973 10.9577C21.0077 11.5032 20.7739 12.2045 20.7739 12.9058C20.696 13.8408 21.1636 14.698 21.8649 15.3214ZM21.7869 12.8278C21.7869 11.659 22.722 10.724 23.8908 10.646H23.9687H24.0467C25.2155 10.724 26.1506 11.659 26.1506 12.8278C26.1506 13.9967 25.1376 15.0097 23.9687 15.0097C22.7999 15.0097 21.7869 14.0746 21.7869 12.8278ZM28.2545 23.9707C28.2545 26.3084 26.3843 28.2564 23.9687 28.2564C21.5532 28.2564 19.683 26.3863 19.683 23.9707C19.683 21.633 21.6311 19.7629 23.9687 19.7629C26.3064 19.7629 28.2545 21.633 28.2545 23.9707ZM7.68304 28.4902C7.29343 27.1655 7.13758 25.685 7.05966 24.2824C7.05966 24.2045 7.05966 24.1265 7.05966 24.0486V23.9707C7.05966 23.8928 7.05966 23.8149 7.05966 23.7369C7.13758 21.3993 8.6181 19.4512 10.6441 18.5941C11.1116 18.4382 11.5012 18.2824 11.9687 18.2045C12.2025 18.1265 12.5142 18.1265 12.8259 18.1265C14.1506 18.1265 15.3194 18.5941 16.3324 19.2954C15.8649 20.0746 15.5532 20.9317 15.3194 21.7889C14.696 21.0876 13.8389 20.698 12.9038 20.698C12.2025 20.698 11.5791 20.9317 11.0337 21.3214C10.2545 21.9447 9.70901 22.8798 9.70901 23.8928V23.9707C9.70901 25.8408 10.0986 27.633 10.722 29.2694C10.8778 29.7369 11.1116 30.2045 11.3454 30.5941C12.67 33.1655 14.8519 35.3473 17.4233 36.672C17.735 38.0746 18.5142 39.3214 19.6051 40.2564C13.761 38.7759 9.24148 34.1785 7.68304 28.4902ZM28.5662 40.3343C27.2415 40.7239 25.761 40.9577 24.2804 40.9577C24.2025 40.9577 24.1246 40.9577 24.0467 40.9577C23.9687 40.9577 23.8908 40.9577 23.8129 40.9577C21.4752 40.8798 19.5272 39.3993 18.67 37.3733C18.5142 36.9058 18.3584 36.5162 18.2804 36.0486C18.2025 35.8149 18.2025 35.5032 18.2025 35.1915C18.2025 33.8668 18.67 32.698 19.3713 31.685C20.1506 32.1525 21.0077 32.4642 21.8649 32.698C21.1636 33.2434 20.7739 34.1785 20.7739 35.1136C20.7739 35.8149 21.0077 36.4382 21.3973 36.9837C21.9428 37.7629 22.7999 38.2304 23.735 38.3084C23.8129 38.3084 23.8908 38.3084 23.9687 38.3084C24.0467 38.3084 24.1246 38.3084 24.2025 38.3084C25.9947 38.3084 27.709 37.9188 29.2674 37.2954C29.735 37.1395 30.2025 36.9058 30.5921 36.672C33.1636 35.3473 35.2675 33.1655 36.67 30.5941C38.0726 30.2824 39.3194 29.5032 40.2545 28.4123C38.7739 34.2564 34.2545 38.7759 28.5662 40.3343ZM40.9558 23.9707C40.9558 24.0486 40.9558 24.1265 40.9558 24.2045C40.8778 26.5421 39.3973 28.4902 37.3713 29.3473C36.9038 29.5032 36.5142 29.659 36.0467 29.7369C35.8129 29.8149 35.5012 29.8149 35.1895 29.8149C33.8649 29.8149 32.696 29.3473 31.761 28.646C32.2285 27.8668 32.5402 27.0097 32.7739 26.1525C33.3973 26.8538 34.2545 27.2434 35.1895 27.2434C35.8908 27.2434 36.5142 27.0097 37.0597 26.6201C37.8389 25.9967 38.3843 25.0616 38.3843 23.9707C38.3843 22.1006 37.9947 20.3084 37.3713 18.5941C37.2155 18.1265 36.9817 17.659 36.748 17.2694C35.4233 14.698 33.2415 12.5941 30.67 11.1915C30.3584 9.78889 29.5791 8.54213 28.4882 7.60707C34.1765 9.16551 38.696 13.685 40.2545 19.3733C40.6441 20.698 40.8778 22.1785 40.8778 23.659C40.9558 23.8149 40.9558 23.8928 40.9558 23.9707Z" fill="black"/>
</svg>
