<svg width="48" height="48" viewBox="0 0 48 48" fill="none" xmlns="http://www.w3.org/2000/svg">
<rect width="48" height="48" rx="24" fill="#206444"/>
<path d="M17 33.74V15H24.735C26.1316 15 27.367 15.2677 28.3876 15.8031C29.4082 16.3386 30.2139 17.0882 30.7511 18.1055C31.2882 19.0693 31.6105 20.1937 31.6105 21.4787C31.6105 22.7637 31.342 23.8881 30.7511 24.8519C30.1602 25.8157 29.3545 26.5653 28.3339 27.1007C27.3133 27.6361 26.0242 27.9038 24.6276 27.9038H19.8469V24.3165H23.7681C24.4664 24.3165 25.0036 24.2094 25.487 23.9417C25.9704 23.7275 26.2927 23.3527 26.5613 22.9243C26.7762 22.496 26.9373 22.0141 26.9373 21.4251C26.9373 20.8362 26.8299 20.3543 26.5613 19.9259C26.3464 19.4976 25.9704 19.1763 25.487 18.9622C25.0036 18.748 24.4664 18.6409 23.7681 18.6409H21.5658V33.74H17Z" fill="white"/>
</svg>
