<svg width="48" height="48" viewBox="0 0 48 48" fill="none" xmlns="http://www.w3.org/2000/svg">
<rect width="48" height="48" rx="24" fill="#EABB5C"/>
<g clip-path="url(#clip0_575_9075)">
<path d="M13.4012 19.429C13.4012 17.1962 12.2755 15.3508 10.1719 13.8008H15.062C16.7781 15.1294 17.8299 17.1593 17.8299 19.429C17.8299 21.6987 16.7781 23.7286 15.062 25.0572C16.6489 25.7215 17.5531 27.3454 17.5531 29.6705V34.0992H13.1244V29.6705C13.1244 27.4561 12.0725 25.906 10.1719 25.0572C12.2755 23.4887 13.4012 21.6618 13.4012 19.429ZM22.9784 19.429C22.9784 17.1962 21.8527 15.3508 19.7491 13.8008H24.6391C26.3553 15.1294 27.4071 17.1593 27.4071 19.429C27.4071 21.6987 26.3553 23.7286 24.6391 25.0572C26.2261 25.7215 27.1303 27.3454 27.1303 29.6705V34.0992H22.7016V29.6705C22.7016 27.4561 21.6497 25.906 19.7491 25.0572C21.8527 23.4887 22.9784 21.6618 22.9784 19.429ZM32.574 19.429C32.574 17.1962 31.4483 15.3508 29.3447 13.8008H34.2348C35.9509 15.1294 37.0027 17.1593 37.0027 19.429C37.0027 21.6987 35.9509 23.7286 34.2348 25.0572C35.8217 25.7215 36.7259 27.3454 36.7259 29.6705V34.0992H32.2972V29.6705C32.2972 27.4561 31.2454 25.906 29.3447 25.0572C31.4483 23.4887 32.574 21.6618 32.574 19.429Z" fill="#453234"/>
</g>
<defs>
<clipPath id="clip0_575_9075">
<rect width="26.8124" height="20.28" fill="white" transform="translate(10.1719 13.8008)"/>
</clipPath>
</defs>
</svg>
